<?xml version="1.0" encoding="UTF-8"?>
<!-- Generator: Adobe Illustrator 24.0.3, SVG Export Plug-In . SVG Version: 6.00 Build 0)  -->
<svg version="1.1" xmlns="http://www.w3.org/2000/svg" xmlns:xlink="http://www.w3.org/1999/xlink" x="0px" y="0px" viewBox="0 0 81.47 43.11" style="enable-background:new 0 0 81.47 43.11;" xml:space="preserve">
<style type="text/css">
	.st0{fill:#282827;}
	.st1{clip-path:url(#SVGID_2_);}
	.st2{fill:url(#SVGID_3_);}
	.st3{fill:url(#SVGID_4_);}
	.st4{fill:url(#SVGID_5_);}
	.st5{fill:url(#SVGID_6_);}
	.st6{fill:url(#SVGID_7_);}
	.st7{fill:url(#SVGID_8_);}
	.st8{fill:url(#SVGID_9_);}
	.st9{fill:url(#SVGID_10_);}
	.st10{fill:url(#SVGID_11_);}
	.st11{fill:url(#SVGID_12_);}
	.st12{fill:url(#SVGID_13_);}
	.st13{fill:url(#SVGID_14_);}
	.st14{fill:url(#SVGID_15_);}
	.st15{fill:url(#SVGID_16_);}
	.st16{fill:url(#SVGID_17_);}
	.st17{fill:url(#SVGID_18_);}
	.st18{fill:url(#SVGID_19_);}
	.st19{fill:url(#SVGID_20_);}
	.st20{fill:url(#SVGID_21_);}
	.st21{fill:url(#SVGID_22_);}
	.st22{fill:url(#SVGID_23_);}
	.st23{fill:url(#SVGID_24_);}
	.st24{fill:url(#SVGID_25_);}
	.st25{fill:url(#SVGID_26_);}
	.st26{fill:url(#SVGID_27_);}
	.st27{fill:url(#SVGID_28_);}
	.st28{fill:url(#SVGID_29_);}
	.st29{fill:url(#SVGID_30_);}
	.st30{fill:url(#SVGID_31_);}
	.st31{fill:url(#SVGID_32_);}
	.st32{fill:url(#SVGID_33_);}
	.st33{fill:url(#SVGID_34_);}
	.st34{fill:url(#SVGID_35_);}
	.st35{fill:url(#SVGID_36_);}
	.st36{fill:url(#SVGID_37_);}
	.st37{fill:url(#SVGID_38_);}
	.st38{fill:url(#SVGID_39_);}
	.st39{fill:url(#SVGID_40_);}
	.st40{fill:url(#SVGID_41_);}
	.st41{fill:url(#SVGID_42_);}
	.st42{fill:url(#SVGID_43_);}
	.st43{fill:url(#SVGID_44_);}
	.st44{fill:url(#SVGID_45_);}
	.st45{fill:url(#SVGID_46_);}
	.st46{fill:url(#SVGID_47_);}
	.st47{fill:url(#SVGID_48_);}
	.st48{fill:url(#SVGID_49_);}
	.st49{fill:url(#SVGID_50_);}
	.st50{fill:url(#SVGID_51_);}
	.st51{fill:url(#SVGID_52_);}
	.st52{fill:url(#SVGID_53_);}
	.st53{fill:url(#SVGID_54_);}
	.st54{fill:url(#SVGID_55_);}
	.st55{fill:url(#SVGID_56_);}
	.st56{fill:url(#SVGID_57_);}
	.st57{fill:url(#SVGID_58_);}
	.st58{fill:url(#SVGID_59_);}
	.st59{fill:url(#SVGID_60_);}
	.st60{fill:url(#SVGID_61_);}
	.st61{fill:url(#SVGID_62_);}
	.st62{fill:url(#SVGID_63_);}
	.st63{fill:url(#SVGID_64_);}
	.st64{fill:url(#SVGID_65_);}
	.st65{fill:url(#SVGID_66_);}
	.st66{fill:url(#SVGID_67_);}
	.st67{fill:url(#SVGID_68_);}
	.st68{fill:url(#SVGID_69_);}
	.st69{fill:url(#SVGID_70_);}
	.st70{fill:url(#SVGID_71_);}
	.st71{fill:url(#SVGID_72_);}
	.st72{fill:url(#SVGID_73_);}
	.st73{fill:url(#SVGID_74_);}
	.st74{fill:url(#SVGID_75_);}
	.st75{fill:url(#SVGID_76_);}
	.st76{fill:url(#SVGID_77_);}
	.st77{fill:url(#SVGID_78_);}
	.st78{fill:url(#SVGID_79_);}
	.st79{fill:url(#SVGID_80_);}
	.st80{fill:url(#SVGID_81_);}
	.st81{fill:url(#SVGID_82_);}
	.st82{fill:url(#SVGID_83_);}
	.st83{fill:url(#SVGID_84_);}
	.st84{fill:url(#SVGID_85_);}
	.st85{fill:url(#SVGID_86_);}
	.st86{fill:url(#SVGID_87_);}
	.st87{fill:url(#SVGID_88_);}
	.st88{fill:url(#SVGID_89_);}
	.st89{fill:url(#SVGID_90_);}
	.st90{fill:url(#SVGID_91_);}
	.st91{fill:url(#SVGID_92_);}
	.st92{fill:url(#SVGID_93_);}
	.st93{fill:url(#SVGID_94_);}
	.st94{fill:url(#SVGID_95_);}
	.st95{fill:url(#SVGID_96_);}
	.st96{fill:url(#SVGID_97_);}
	.st97{fill:url(#SVGID_98_);}
	.st98{fill:url(#SVGID_99_);}
	.st99{fill:url(#SVGID_100_);}
	.st100{fill:url(#SVGID_101_);}
	.st101{fill:url(#SVGID_102_);}
	.st102{fill:url(#SVGID_103_);}
	.st103{fill:url(#SVGID_104_);}
	.st104{fill:url(#SVGID_105_);}
	.st105{fill:url(#SVGID_106_);}
	.st106{fill:url(#SVGID_107_);}
	.st107{fill:url(#SVGID_108_);}
	.st108{fill:url(#SVGID_109_);}
	.st109{fill:url(#SVGID_110_);}
	.st110{fill:url(#SVGID_111_);}
	.st111{fill:url(#SVGID_112_);}
	.st112{fill:url(#SVGID_113_);}
	.st113{fill:url(#SVGID_114_);}
	.st114{fill:url(#SVGID_115_);}
	.st115{fill:url(#SVGID_116_);}
	.st116{fill:url(#SVGID_117_);}
	.st117{fill:url(#SVGID_118_);}
	.st118{fill:url(#SVGID_119_);}
	.st119{fill:url(#SVGID_120_);}
	.st120{fill:url(#SVGID_121_);}
	.st121{fill:url(#SVGID_122_);}
	.st122{fill:url(#SVGID_123_);}
	.st123{fill:url(#SVGID_124_);}
	.st124{fill:url(#SVGID_125_);}
	.st125{fill:url(#SVGID_126_);}
	.st126{fill:url(#SVGID_127_);}
	.st127{fill:url(#SVGID_128_);}
	.st128{fill:url(#SVGID_129_);}
	.st129{fill:url(#SVGID_130_);}
	.st130{fill:url(#SVGID_131_);}
	.st131{fill:url(#SVGID_132_);}
	.st132{fill:url(#SVGID_133_);}
	.st133{fill:url(#SVGID_134_);}
	.st134{fill:url(#SVGID_135_);}
	.st135{fill:url(#SVGID_136_);}
	.st136{fill:url(#SVGID_137_);}
	.st137{fill:url(#SVGID_138_);}
	.st138{fill:url(#SVGID_139_);}
	.st139{fill:url(#SVGID_140_);}
	.st140{fill:url(#SVGID_141_);}
	.st141{fill:url(#SVGID_142_);}
	.st142{fill:url(#SVGID_143_);}
	.st143{fill:url(#SVGID_144_);}
	.st144{fill:url(#SVGID_145_);}
	.st145{fill:url(#SVGID_146_);}
	.st146{fill:url(#SVGID_147_);}
	.st147{fill:url(#SVGID_148_);}
	.st148{fill:url(#SVGID_149_);}
	.st149{fill:url(#SVGID_150_);}
	.st150{fill:url(#SVGID_151_);}
	.st151{fill:url(#SVGID_152_);}
	.st152{fill:url(#SVGID_153_);}
	.st153{fill:url(#SVGID_154_);}
	.st154{fill:url(#SVGID_155_);}
	.st155{fill:url(#SVGID_156_);}
	.st156{fill:url(#SVGID_157_);}
	.st157{fill:url(#SVGID_158_);}
	.st158{fill:url(#SVGID_159_);}
	.st159{fill:url(#SVGID_160_);}
	.st160{fill:url(#SVGID_161_);}
	.st161{fill:url(#SVGID_162_);}
	.st162{fill:url(#SVGID_163_);}
	.st163{fill:url(#SVGID_164_);}
	.st164{fill:url(#SVGID_165_);}
	.st165{fill:url(#SVGID_166_);}
	.st166{fill:url(#SVGID_167_);}
	.st167{fill:url(#SVGID_168_);}
	.st168{fill:url(#SVGID_169_);}
	.st169{fill:url(#SVGID_170_);}
	.st170{fill:url(#SVGID_171_);}
	.st171{fill:url(#SVGID_172_);}
	.st172{fill:url(#SVGID_173_);}
	.st173{fill:url(#SVGID_174_);}
	.st174{fill:url(#SVGID_175_);}
	.st175{fill:url(#SVGID_176_);}
	.st176{fill:url(#SVGID_177_);}
	.st177{fill:url(#SVGID_178_);}
	.st178{fill:url(#SVGID_179_);}
	.st179{fill:url(#SVGID_180_);}
	.st180{fill:#FFFFFF;}
	.st181{fill-rule:evenodd;clip-rule:evenodd;fill:#93D500;}
	.st182{fill:#0D0708;}
	.st183{fill:#93D500;}
	.st184{fill:#93D500;stroke:url(#SVGID_181_);stroke-miterlimit:10;}
	.st185{fill:none;stroke:#000000;stroke-width:0.75;stroke-linejoin:round;stroke-miterlimit:10;}
	.st186{fill:#93D500;stroke:#000000;stroke-width:0.75;stroke-linejoin:round;stroke-miterlimit:10;}
	.st187{fill:#FFFFFF;stroke:#000000;stroke-width:0.75;stroke-linejoin:round;stroke-miterlimit:10;}
	.st188{fill:#231F20;}
	.st189{fill:none;stroke:#FFFFFF;stroke-width:0.4744;stroke-miterlimit:10;}
	.st190{fill:none;stroke:#93D500;stroke-width:0.1088;}
	.st191{clip-path:url(#SVGID_183_);}
	.st192{clip-path:url(#SVGID_185_);}
	.st193{fill:none;stroke:#FFFFFF;stroke-width:0.2852;}
	.st194{fill:#87D700;}
	.st195{clip-path:url(#SVGID_187_);}
	.st196{fill:#101820;}
	.st197{fill-rule:evenodd;clip-rule:evenodd;fill:#282827;stroke:#FFFFFF;stroke-width:0.6841;stroke-miterlimit:10;}
	.st198{fill-rule:evenodd;clip-rule:evenodd;fill:none;stroke:#FFFFFF;stroke-width:0.5;stroke-miterlimit:3.8637;}
	.st199{fill-rule:evenodd;clip-rule:evenodd;fill:none;stroke:#FFFFFF;stroke-width:0.9028;stroke-miterlimit:3.8637;}
	.st200{fill-rule:evenodd;clip-rule:evenodd;fill:none;stroke:#FFFFFF;stroke-width:0.3994;stroke-miterlimit:3.8637;}
	.st201{fill:#F32735;}
	.st202{clip-path:url(#SVGID_189_);}
	.st203{fill-rule:evenodd;clip-rule:evenodd;fill:none;stroke:#FFFFFF;stroke-width:7;stroke-miterlimit:3.8637;}
	.st204{fill-rule:evenodd;clip-rule:evenodd;fill:none;stroke:#FFFFFF;stroke-width:3;stroke-miterlimit:3.8637;}
	.st205{fill:none;stroke:#93D500;stroke-width:0.5719;stroke-miterlimit:10;}
	.st206{fill:#211F1F;}
	.st207{fill:url(#SVGID_190_);}
	.st208{fill:url(#SVGID_191_);}
	.st209{fill:url(#SVGID_192_);}
	.st210{fill:none;stroke:#282827;stroke-width:1.25;stroke-linecap:round;stroke-linejoin:round;stroke-miterlimit:10;}
	.st211{display:none;}
	.st212{display:inline;}
	.st213{fill:#00A651;}
	
		.st214{fill:none;stroke:#00A651;stroke-width:0.3787;stroke-linecap:round;stroke-dasharray:0.7969,0.7969,0.7969,0.7969,0.7969,0.7969;}
	.st215{display:inline;fill:#00A651;}
	.st216{display:inline;fill:#659AD2;}
	.st217{display:inline;fill:#666666;}
	.st218{display:inline;fill:#999999;}
	.st219{display:inline;fill:#82CA9C;}
	.st220{display:inline;fill:none;stroke:#000000;stroke-width:0.5;stroke-miterlimit:10;}
	
		.st221{display:inline;fill:none;stroke:#000000;stroke-width:0.5;stroke-linecap:round;stroke-linejoin:round;stroke-miterlimit:10;}
	.st222{display:inline;fill:none;stroke:#000000;stroke-width:0.4324;stroke-miterlimit:10;}
	.st223{fill:#0072BC;}
	.st224{display:inline;fill:none;stroke:#000000;stroke-width:0.18;stroke-linejoin:round;stroke-miterlimit:10;}
	.st225{display:inline;fill:none;stroke:#3953A4;stroke-width:0.36;stroke-linejoin:round;stroke-miterlimit:10;}
	.st226{fill:#3953A4;}
	
		.st227{display:inline;fill:none;stroke:#282973;stroke-width:0.18;stroke-linejoin:round;stroke-miterlimit:10;stroke-dasharray:8.5,3.5,3,3.5;}
</style>
<g id="Matte">
</g>
<g id="Artwork_1_">
	<g>
		<g>
			<g>
				<g>
					<g>
						<path class="st194" d="M79.69,8.47c0.62-2.79-0.74-6.81-5.76-6.81L17.79,1.68v0c-5.94,0-7.29,4.13-7.55,5.15L3.71,33.17h10.87        l5.57-22.59h5.1l-5.57,22.59h10.65l5.62-22.59h5.1l-5.62,22.59h10.65l2.54-10.28h21.57c1.2,0,3.09-0.22,5.04-1.97        c1.49-1.34,1.95-2.43,2.15-3.12c0.06-0.21,0.1-0.39,0.14-0.52c0.07-0.26,2.18-8.8,2.18-8.8H79.69z M50.66,14.64l1.05-4.27        h18.75c0,0-0.73,3-0.8,3.25c-0.13,0.48-0.21,0.64-0.39,0.78c-0.21,0.16-0.41,0.23-1.17,0.23        C67.7,14.64,50.66,14.64,50.66,14.64z"/>
						<g>
							<path class="st194" d="M10.16,39.55l0.87-3.53h1.42l-0.75,3.06l0.28,0.36h2.19l0.35-0.36l0.75-3.06h1.42l-0.87,3.53         l-0.84,0.87h-4.13L10.16,39.55z"/>
							<path class="st194" d="M16.66,39.68l0.13-0.54h1.42l-0.06,0.23l0.1,0.12h2.48l0.09-0.09l0.12-0.5l-0.05-0.06l-3.2-0.25         l-0.56-0.71l0.25-1.03l0.78-0.81h4.12l0.59,0.75l-0.13,0.54h-1.42l0.06-0.24l-0.1-0.12h-2.44l-0.09,0.1l-0.11,0.48l0.05,0.06         l3.2,0.25l0.56,0.72l-0.26,1.06l-0.78,0.81h-4.16L16.66,39.68z"/>
							<path class="st194" d="M23.07,39.55l0.65-2.65l0.85-0.87h4.13l0.69,0.87l-0.21,0.86h-1.43l0.1-0.38l-0.28-0.36h-2.19         l-0.35,0.36l-0.42,1.71l0.28,0.36h2.19l0.35-0.36l0.1-0.42h1.43l-0.22,0.89l-0.84,0.88h-4.13L23.07,39.55z"/>
							<path class="st194" d="M31.11,39.4h2.84l-0.25,1.02h-4.25l1.07-4.4h1.42L31.11,39.4z"/>
							<path class="st194" d="M35.49,36.02h4.69l-0.22,0.89H36.7l-0.2,0.84h2.96l-0.22,0.89h-2.96l-0.22,0.89h3.28l-0.22,0.89h-4.7         L35.49,36.02z"/>
							<path class="st180" d="M41.28,36.02H46l0.64,0.81l-0.37,1.52l-0.78,0.81h-3.55l-0.31,1.26h-1.42L41.28,36.02z M42.17,38.2         h2.54l0.23-0.24l0.2-0.82l-0.19-0.23h-2.47L42.17,38.2z"/>
							<path class="st180" d="M59.48,36.84l-0.64-0.81h-4.18l-0.7,0.81l-0.9,3.59h1.42l0.31-1.26h2.7l-0.32,1.27h1.42l0.51-2.06         l0.01-0.01L59.48,36.84z M57.56,38.2h-2.53l0.26-1.06l0.24-0.22h2.28l0.18,0.23l-0.08,0.35l-0.18,0.7L57.56,38.2z"/>
							<polygon class="st194" points="9.29,36.03 6.78,36.03 6.57,36.22 6.46,36.03 3.54,36.03 2.81,36.84 1.92,40.42 3.31,40.42          4.07,37.25 4.31,37.03 5.34,37.03 5.52,37.25 4.73,40.42 6.15,40.42 6.92,37.25 7.15,37.03 8.15,37.03 8.36,37.25          7.57,40.42 9.01,40.42 9.91,36.81        "/>
							<polygon class="st180" points="73.53,36.03 71.03,36.03 70.81,36.22 70.69,36.03 67.78,36.03 67.05,36.84 66.15,40.42          67.55,40.42 68.31,37.25 68.55,37.03 69.58,37.03 69.76,37.25 68.97,40.42 70.39,40.42 71.16,37.25 71.39,37.03 72.39,37.03          72.6,37.25 71.81,40.42 73.25,40.42 74.14,36.81        "/>
							<path class="st180" d="M51.01,38.82h-2.65l-0.39,1.61h-1.42l1.07-4.4h1.42l-0.42,1.71h2.65l0.42-1.71h1.42l-1.08,4.4h-1.42         L51.01,38.82z"/>
							<path class="st180" d="M61.41,38.98l-0.36,1.44h-1.42l1.07-4.4h4.69l0.64,0.81L65.8,37.8l-0.86,0.89l0.46,1.74h-1.49         l-0.29-1.44H61.41z M61.64,38.03h2.51l0.23-0.24l0.16-0.64l-0.18-0.23h-2.44L61.64,38.03z"/>
							<path class="st180" d="M76.4,39.53c0,0.52-0.42,0.95-0.93,0.94c-0.52,0-0.95-0.43-0.95-0.94c0-0.52,0.43-0.94,0.94-0.94         C75.99,38.6,76.4,39,76.4,39.53z M76.22,39.53c0.01-0.42-0.34-0.77-0.76-0.77c-0.43,0-0.76,0.34-0.77,0.77         c0,0.42,0.34,0.77,0.77,0.77C75.89,40.31,76.23,39.95,76.22,39.53z M75.34,40.07h-0.25v-1.09h0.46c0.17,0,0.27,0.1,0.27,0.29         c0,0.14-0.05,0.24-0.21,0.27l0,0c0.05,0,0.21,0.02,0.21,0.21c0,0.07,0,0.27,0.03,0.32l-0.25-0.01         c-0.02-0.06-0.02-0.14-0.02-0.21c0-0.12,0.01-0.24-0.17-0.24l-0.07,0L75.34,40.07z M75.35,39.47h0.11         c0.1,0,0.13-0.09,0.13-0.16c-0.01-0.11-0.06-0.15-0.13-0.15h-0.12L75.35,39.47z"/>
						</g>
					</g>
				</g>
			</g>
		</g>
	</g>
</g>
<g id="Layer_10">
</g>
<g id="Gripper" class="st211">
</g>
<g id="High_Distortion_Copy_Free" class="st211">
</g>
<g id="Graphic_Placement" class="st211">
</g>
<g id="Sleeve_Template" class="st211">
</g>
<g id="Choose_Unwind" class="st211">
</g>
<g id="Vertical_T-Perf" class="st211">
</g>
<g id="Dieline" class="st211">
</g>
</svg>